<svg width="704" height="122" viewBox="0 0 704 122" fill="none" xmlns="http://www.w3.org/2000/svg">
<path fill-rule="evenodd" clip-rule="evenodd" d="M31.4992 0H90.2978C115.497 0 134.397 19.9586 134.397 44.1191C134.397 68.2795 114.447 88.2381 90.2978 88.2381H28.3493L11.5497 117.651H0L38.8491 49.3713H31.4992C17.8496 49.3713 7.34982 38.8668 7.34982 25.2109C7.34982 11.555 17.8496 0 31.4992 0ZM70.3483 38.8668C83.998 38.8668 95.5477 50.4218 95.5477 64.0777C95.5477 69.3299 94.4977 73.5318 90.2978 77.7336C109.197 77.7336 123.897 63.0272 123.897 44.1191C123.897 25.2109 109.197 10.5045 90.2978 10.5045H31.4992C24.1494 10.5045 16.7996 15.7568 16.7996 24.1604C16.7996 32.5641 23.0994 38.8668 31.4992 38.8668H56.6986L34.6492 77.7336H71.3983C78.7481 77.7336 86.0979 72.4813 86.0979 64.0777C86.0979 55.674 79.7981 49.3713 71.3983 49.3713H58.7986L65.0984 38.8668H70.3483ZM49.3488 32.5638L58.7986 16.807H70.3483L60.8986 32.5638H49.3488Z" fill="#22374F"/>
<path d="M177.899 98.0334C171.112 98.0334 165.047 96.4187 159.702 93.1891C154.358 89.9596 150.116 85.5827 146.978 80.0585C143.924 74.5343 142.397 68.4152 142.397 61.7011C142.397 54.9021 143.966 48.783 147.105 43.3438C150.244 37.8196 154.485 33.4427 159.83 30.2132C165.174 26.9836 171.155 25.3689 177.772 25.3689C182.862 25.3689 187.358 26.3462 191.26 28.3009C195.247 30.1707 198.386 32.8478 200.676 36.3323L197.75 40.1567V0H216.837V96.5037H199.022V83.7555L200.803 87.7074C198.428 91.1069 195.205 93.6991 191.133 95.4838C187.061 97.1836 182.649 98.0334 177.899 98.0334ZM180.189 80.8234C183.667 80.8234 186.721 80.016 189.351 78.4013C191.981 76.7865 194.017 74.5343 195.459 71.6447C196.986 68.7551 197.75 65.4406 197.75 61.7011C197.75 57.9617 196.986 54.6472 195.459 51.7576C194.017 48.868 191.981 46.6158 189.351 45.001C186.721 43.3863 183.667 42.5789 180.189 42.5789C176.711 42.5789 173.572 43.4288 170.773 45.1285C168.058 46.7433 165.938 48.9955 164.411 51.8851C162.884 54.6897 162.12 57.9617 162.12 61.7011C162.12 65.4406 162.884 68.7551 164.411 71.6447C165.938 74.5343 168.058 76.7865 170.773 78.4013C173.572 80.016 176.711 80.8234 180.189 80.8234Z" fill="#22374F"/>
<path d="M264.281 98.0334C256.901 98.0334 250.496 96.4187 245.067 93.1891C239.638 89.8746 235.438 85.4552 232.469 79.931C229.5 74.4068 228.016 68.2877 228.016 61.5737C228.016 54.6047 229.543 48.4006 232.597 42.9613C235.735 37.5221 239.935 33.2302 245.194 30.0857C250.454 26.9411 256.392 25.3689 263.009 25.3689C268.523 25.3689 273.401 26.2612 277.642 28.046C281.884 29.7457 285.447 32.1679 288.331 35.3124C291.3 38.457 293.548 42.1115 295.075 46.2759C296.602 50.3553 297.366 54.8171 297.366 59.6614C297.366 61.0212 297.281 62.3811 297.111 63.7409C297.026 65.0157 296.814 66.1205 296.475 67.0554H244.431V53.0324H285.659L276.624 59.6614C277.473 56.007 277.43 52.7774 276.497 49.9728C275.564 47.0832 273.91 44.8311 271.534 43.2163C269.244 41.5165 266.402 40.6667 263.009 40.6667C259.7 40.6667 256.858 41.4741 254.483 43.0888C252.108 44.7036 250.326 47.0832 249.139 50.2278C247.951 53.3723 247.485 57.1968 247.739 61.7011C247.4 65.6106 247.866 69.0526 249.139 72.0272C250.411 75.0017 252.362 77.3389 254.992 79.0387C257.622 80.6534 260.803 81.4608 264.536 81.4608C267.929 81.4608 270.813 80.7809 273.189 79.4211C275.649 78.0613 277.557 76.1916 278.915 73.8119L294.185 81.0784C292.827 84.4779 290.664 87.4525 287.695 90.0021C284.811 92.5517 281.375 94.5489 277.388 95.9937C273.401 97.3535 269.032 98.0334 264.281 98.0334Z" fill="#22374F"/>
<path d="M329.122 96.5037L301.764 26.8986H322.378L341.338 79.5486H333.448L352.408 26.8986H373.023L345.664 96.5037H329.122Z" fill="#22374F"/>
<path d="M408.656 98.0334C401.021 98.0334 394.362 96.2487 388.678 92.6792C383.079 89.0247 379.262 84.1379 377.226 78.0188L391.223 71.3898C393.004 75.1292 395.422 78.0613 398.476 80.186C401.53 82.3107 404.923 83.373 408.656 83.373C411.371 83.373 413.449 82.8206 414.891 81.7158C416.333 80.6109 417.054 79.0812 417.054 77.1264C417.054 76.1066 416.8 75.2567 416.291 74.5768C415.782 73.8119 415.018 73.132 414 72.5371C412.982 71.9422 411.71 71.4323 410.183 71.0073L398.349 67.6928C392.665 66.078 388.296 63.4859 385.242 59.9164C382.188 56.2619 380.661 51.97 380.661 47.0408C380.661 42.7064 381.764 38.9244 383.97 35.6949C386.175 32.4653 389.272 29.9582 393.259 28.1735C397.246 26.3037 401.827 25.3689 407.002 25.3689C413.788 25.3689 419.727 26.9836 424.816 30.2132C429.991 33.3577 433.639 37.8196 435.76 43.5987L421.635 50.2278C420.617 47.3382 418.751 45.0435 416.036 43.3438C413.406 41.559 410.395 40.6667 407.002 40.6667C404.542 40.6667 402.59 41.1766 401.148 42.1964C399.791 43.2163 399.112 44.6186 399.112 46.4033C399.112 47.3382 399.367 48.1881 399.876 48.953C400.385 49.7179 401.191 50.3978 402.294 50.9927C403.481 51.5876 404.923 52.14 406.62 52.6499L417.691 55.9645C423.459 57.6642 427.87 60.2564 430.924 63.7409C433.978 67.1404 435.505 71.3473 435.505 76.3615C435.505 80.6959 434.36 84.4779 432.07 87.7074C429.864 90.937 426.768 93.4866 422.78 95.3563C418.793 97.1411 414.085 98.0334 408.656 98.0334Z" fill="#22374F"/>
<path d="M446.913 122V26.8986H464.727V40.1567L463.073 36.3323C465.364 32.8478 468.46 30.1707 472.362 28.3009C476.349 26.3462 480.888 25.3689 485.978 25.3689C492.595 25.3689 498.575 26.9836 503.92 30.2132C509.264 33.4427 513.506 37.8196 516.645 43.3438C519.783 48.783 521.353 54.9021 521.353 61.7011C521.353 68.4152 519.783 74.5343 516.645 80.0585C513.591 85.5827 509.392 89.9596 504.047 93.1891C498.703 96.4187 492.637 98.0334 485.851 98.0334C481.1 98.0334 476.689 97.1836 472.617 95.4838C468.63 93.6991 465.406 91.1069 462.946 87.7074L466 83.7555V122H446.913ZM483.56 80.8234C487.123 80.8234 490.262 80.016 492.977 78.4013C495.691 76.7865 497.812 74.5343 499.339 71.6447C500.866 68.7551 501.629 65.4406 501.629 61.7011C501.629 57.9617 500.866 54.6897 499.339 51.8851C497.812 48.9955 495.691 46.7433 492.977 45.1285C490.262 43.4288 487.123 42.5789 483.56 42.5789C480.167 42.5789 477.113 43.3863 474.398 45.001C471.769 46.6158 469.69 48.868 468.163 51.7576C466.721 54.6472 466 57.9617 466 61.7011C466 65.4406 466.721 68.7551 468.163 71.6447C469.69 74.5343 471.769 76.7865 474.398 78.4013C477.113 80.016 480.167 80.8234 483.56 80.8234Z" fill="#22374F"/>
<path d="M532.532 96.5037V0H551.619V96.5037H532.532Z" fill="#22374F"/>
<path d="M587.091 98.0334C582.086 98.0334 577.76 97.2261 574.112 95.6113C570.464 93.9965 567.665 91.7018 565.714 88.7273C563.762 85.6677 562.787 82.0557 562.787 77.8913C562.787 73.9819 563.678 70.5399 565.459 67.5653C567.241 64.5057 569.955 61.9561 573.603 59.9164C577.336 57.8767 581.959 56.4319 587.473 55.582L608.723 52.14V66.163L590.909 69.3501C588.194 69.86 586.116 70.7523 584.673 72.0272C583.231 73.217 582.51 74.9592 582.51 77.2539C582.51 79.3786 583.316 81.0359 584.928 82.2257C586.54 83.4155 588.533 84.0104 590.909 84.0104C594.047 84.0104 596.804 83.3306 599.18 81.9707C601.555 80.6109 603.379 78.7837 604.651 76.489C606.009 74.1094 606.687 71.5172 606.687 68.7126V50.6102C606.687 47.9756 605.627 45.7659 603.506 43.9812C601.47 42.1964 598.671 41.3041 595.108 41.3041C591.715 41.3041 588.703 42.2389 586.073 44.1087C583.528 45.9784 581.662 48.443 580.474 51.5026L565.205 44.2361C566.562 40.3267 568.725 36.9697 571.694 34.1651C574.663 31.3605 578.226 29.1933 582.383 27.6635C586.54 26.1338 591.078 25.3689 595.999 25.3689C601.852 25.3689 607.027 26.4312 611.523 28.5559C616.019 30.6806 619.497 33.6552 621.957 37.4796C624.502 41.2191 625.775 45.596 625.775 50.6102V96.5037H607.96V85.2853L612.286 84.5204C610.25 87.5799 608.002 90.1296 605.542 92.1693C603.082 94.124 600.325 95.5688 597.271 96.5037C594.217 97.5235 590.824 98.0334 587.091 98.0334Z" fill="#22374F"/>
<path d="M639.773 96.5037V26.8986H657.588V40.6667L656.57 37.6071C658.181 33.4427 660.769 30.3831 664.332 28.4284C667.979 26.3887 672.221 25.3689 677.056 25.3689C682.316 25.3689 686.897 26.4737 690.799 28.6834C694.786 30.8931 697.883 33.9951 700.088 37.9895C702.294 41.899 703.397 46.4883 703.397 51.7576V96.5037H684.31V55.837C684.31 53.1174 683.758 50.7802 682.655 48.8255C681.637 46.8708 680.153 45.341 678.202 44.2361C676.335 43.1313 674.13 42.5789 671.585 42.5789C669.125 42.5789 666.919 43.1313 664.968 44.2361C663.017 45.341 661.49 46.8708 660.387 48.8255C659.369 50.7802 658.86 53.1174 658.86 55.837V96.5037H639.773Z" fill="#22374F"/>
</svg>
