<svg width="1400" height="620" viewBox="0 0 1400 620" fill="none" xmlns="http://www.w3.org/2000/svg">
<g opacity="0.15" clip-path="url(#clip0_505_39)">
<path d="M0 0L6.70833 10.365C13.3194 20.3426 26.25 41.6538 39.8611 87.8605C53.375 134.648 67.0833 206.332 79.7222 201.488C93.3333 196.645 106.944 113.337 119.583 92.9946C133.292 72.652 146.806 113.337 160.417 149.857C173.347 185.989 186.667 216.987 200.278 232.486C213.306 247.985 226.528 247.985 240.139 242.851C253.361 237.33 266.389 227.643 280 227.352C293.319 227.643 306.25 237.33 319.861 211.853C333.375 185.989 347.083 123.993 359.722 123.993C373.333 123.993 386.944 185.989 399.583 196.354C413.292 206.332 426.806 165.647 440.417 129.127C453.347 92.9946 466.667 61.9964 480.278 87.8605C493.306 113.337 506.528 196.645 520.139 237.62C533.361 278.984 546.389 278.984 560 232.486C573.319 185.989 586.25 92.9946 599.861 82.6295C613.375 72.652 627.083 144.335 639.722 191.123C653.333 237.33 666.944 258.641 679.583 227.352C693.292 196.645 706.806 113.337 720.417 103.36C733.347 92.9946 746.667 154.991 760.278 201.488C773.306 247.985 786.528 278.984 800.139 268.619C813.361 258.641 826.389 206.332 840 201.488C853.319 196.645 866.25 237.33 879.861 222.121C893.375 206.332 907.083 134.648 919.722 134.358C933.333 134.648 946.944 206.332 959.583 216.987C973.292 227.643 986.806 175.333 1000.42 175.624C1013.35 175.333 1026.67 227.643 1040.28 216.987C1053.31 206.332 1066.53 134.648 1080.14 108.494C1093.36 82.3389 1106.39 103.65 1120 139.492C1133.32 175.333 1146.25 227.643 1159.86 253.12C1173.38 278.984 1187.08 278.984 1199.72 263.485C1213.33 247.985 1226.94 216.987 1239.58 196.354C1253.29 175.333 1266.81 165.647 1280.42 175.624C1293.35 185.989 1306.67 216.987 1320.28 216.987C1333.31 216.987 1346.53 185.989 1360.14 196.354C1373.36 206.332 1386.39 258.641 1393.19 284.118L1400 309.982H1393.29C1386.68 309.982 1373.75 309.982 1360.14 309.982C1346.62 309.982 1332.92 309.982 1320.28 309.982C1306.67 309.982 1293.06 309.982 1280.42 309.982C1266.71 309.982 1253.19 309.982 1239.58 309.982C1226.65 309.982 1213.33 309.982 1199.72 309.982C1186.69 309.982 1173.47 309.982 1159.86 309.982C1146.64 309.982 1133.61 309.982 1120 309.982C1106.68 309.982 1093.75 309.982 1080.14 309.982C1066.62 309.982 1052.92 309.982 1040.28 309.982C1026.67 309.982 1013.06 309.982 1000.42 309.982C986.708 309.982 973.194 309.982 959.583 309.982C946.653 309.982 933.333 309.982 919.722 309.982C906.694 309.982 893.472 309.982 879.861 309.982C866.639 309.982 853.611 309.982 840 309.982C826.681 309.982 813.75 309.982 800.139 309.982C786.625 309.982 772.917 309.982 760.278 309.982C746.667 309.982 733.056 309.982 720.417 309.982C706.708 309.982 693.194 309.982 679.583 309.982C666.653 309.982 653.333 309.982 639.722 309.982C626.694 309.982 613.472 309.982 599.861 309.982C586.639 309.982 573.611 309.982 560 309.982C546.681 309.982 533.75 309.982 520.139 309.982C506.625 309.982 492.917 309.982 480.278 309.982C466.667 309.982 453.056 309.982 440.417 309.982C426.708 309.982 413.194 309.982 399.583 309.982C386.653 309.982 373.333 309.982 359.722 309.982C346.694 309.982 333.472 309.982 319.861 309.982C306.639 309.982 293.611 309.982 280 309.982C266.681 309.982 253.75 309.982 240.139 309.982C226.625 309.982 212.917 309.982 200.278 309.982C186.667 309.982 173.056 309.982 160.417 309.982C146.708 309.982 133.194 309.982 119.583 309.982C106.653 309.982 93.3333 309.982 79.7222 309.982C66.6944 309.982 53.4722 309.982 39.8611 309.982C26.6389 309.982 13.6111 309.982 6.80556 309.982H0V0Z" fill="#22374F"/>
</g>
<g opacity="0.15" clip-path="url(#clip1_505_39)">
<path d="M1400 619.964L1393.29 609.599C1386.68 599.621 1373.75 578.31 1360.14 532.103C1346.63 485.315 1332.92 413.632 1320.28 418.475C1306.67 423.319 1293.06 506.627 1280.42 526.969C1266.71 547.312 1253.19 506.627 1239.58 470.107C1226.65 433.975 1213.33 402.976 1199.72 387.477C1186.69 371.978 1173.47 371.978 1159.86 377.112C1146.64 382.634 1133.61 392.321 1120 392.611C1106.68 392.321 1093.75 382.634 1080.14 408.11C1066.63 433.974 1052.92 495.971 1040.28 495.971C1026.67 495.971 1013.06 433.974 1000.42 423.609C986.708 413.632 973.194 454.317 959.583 490.837C946.653 526.969 933.333 557.967 919.722 532.103C906.694 506.626 893.472 423.319 879.861 382.343C866.639 340.98 853.611 340.98 840 387.477C826.681 433.974 813.75 526.969 800.139 537.334C786.625 547.312 772.917 475.628 760.278 428.84C746.667 382.634 733.056 361.322 720.417 392.611C706.708 423.319 693.194 506.626 679.583 516.604C666.653 526.969 653.333 464.973 639.722 418.475C626.694 371.978 613.472 340.98 599.861 351.345C586.639 361.322 573.611 413.632 560 418.475C546.681 423.319 533.75 382.634 520.139 397.842C506.625 413.632 492.917 485.315 480.278 485.606C466.667 485.315 453.056 413.632 440.417 402.976C426.708 392.321 413.194 444.63 399.583 444.339C386.653 444.63 373.333 392.321 359.722 402.976C346.694 413.632 333.472 485.315 319.861 511.47C306.639 537.625 293.611 516.313 280 480.472C266.681 444.63 253.75 392.321 240.139 366.844C226.625 340.98 212.917 340.98 200.278 356.479C186.667 371.978 173.056 402.976 160.417 423.609C146.708 444.63 133.194 454.317 119.583 444.339C106.653 433.974 93.3334 402.976 79.7223 402.976C66.6945 402.976 53.4723 433.974 39.8611 423.609C26.6389 413.632 13.6111 361.322 6.80557 335.846L2.70995e-05 309.982L6.7084 309.982C13.3195 309.982 26.25 309.982 39.8611 309.982C53.375 309.982 67.0834 309.982 79.7223 309.982C93.3334 309.982 106.944 309.982 119.583 309.982C133.292 309.982 146.806 309.982 160.417 309.982C173.347 309.982 186.667 309.982 200.278 309.982C213.306 309.982 226.528 309.982 240.139 309.982C253.361 309.982 266.389 309.982 280 309.982C293.319 309.982 306.25 309.982 319.861 309.982C333.375 309.982 347.083 309.982 359.722 309.982C373.333 309.982 386.944 309.982 399.583 309.982C413.292 309.982 426.806 309.982 440.417 309.982C453.347 309.982 466.667 309.982 480.278 309.982C493.306 309.982 506.528 309.982 520.139 309.982C533.361 309.982 546.389 309.982 560 309.982C573.319 309.982 586.25 309.982 599.861 309.982C613.375 309.982 627.083 309.982 639.722 309.982C653.333 309.982 666.944 309.982 679.583 309.982C693.292 309.982 706.806 309.982 720.417 309.982C733.347 309.982 746.667 309.982 760.278 309.982C773.306 309.982 786.528 309.982 800.139 309.982C813.361 309.982 826.389 309.982 840 309.982C853.319 309.982 866.25 309.982 879.861 309.982C893.375 309.982 907.083 309.982 919.722 309.982C933.333 309.982 946.944 309.982 959.583 309.982C973.292 309.982 986.806 309.982 1000.42 309.982C1013.35 309.982 1026.67 309.982 1040.28 309.982C1053.31 309.982 1066.53 309.982 1080.14 309.982C1093.36 309.982 1106.39 309.982 1120 309.982C1133.32 309.982 1146.25 309.982 1159.86 309.982C1173.38 309.982 1187.08 309.982 1199.72 309.982C1213.33 309.982 1226.94 309.982 1239.58 309.982C1253.29 309.982 1266.81 309.982 1280.42 309.982C1293.35 309.982 1306.67 309.982 1320.28 309.982C1333.31 309.982 1346.53 309.982 1360.14 309.982C1373.36 309.982 1386.39 309.982 1393.19 309.982L1400 309.982L1400 619.964Z" fill="#22374F"/>
<path d="M655 353L670.273 259.909H684.818L669.545 353H655ZM613.318 329.909L615.727 315.364H688.455L686.045 329.909H613.318ZM622.273 353L637.545 259.909H652.091L636.818 353H622.273ZM618.636 297.545L621.091 283H693.818L691.364 297.545H618.636ZM736.67 354.273C730.246 354.273 724.519 353.091 719.489 350.727C714.489 348.364 710.519 345.106 707.58 340.955C704.64 336.803 703.11 332.045 702.989 326.682H722.08C722.292 330.288 723.807 333.212 726.625 335.455C729.443 337.697 732.792 338.818 736.67 338.818C739.761 338.818 742.489 338.136 744.852 336.773C747.246 335.379 749.11 333.455 750.443 331C751.807 328.515 752.489 325.667 752.489 322.455C752.489 319.182 751.792 316.303 750.398 313.818C749.034 311.333 747.14 309.394 744.716 308C742.292 306.606 739.519 305.894 736.398 305.864C733.67 305.864 731.019 306.424 728.443 307.545C725.898 308.667 723.913 310.197 722.489 312.136L704.989 309L709.398 259.909H766.307V276H725.625L723.216 299.318H723.761C725.398 297.015 727.867 295.106 731.17 293.591C734.473 292.076 738.17 291.318 742.261 291.318C747.867 291.318 752.867 292.636 757.261 295.273C761.655 297.909 765.125 301.53 767.67 306.136C770.216 310.712 771.473 315.985 771.443 321.955C771.473 328.227 770.019 333.803 767.08 338.682C764.17 343.53 760.095 347.348 754.852 350.136C749.64 352.894 743.58 354.273 736.67 354.273Z" fill="#22374F"/>
</g>
<defs>
<clipPath id="clip0_505_39">
<rect width="1400" height="309.982" fill="white"/>
</clipPath>
<clipPath id="clip1_505_39">
<rect width="1400" height="309.982" fill="white" transform="translate(1400 619.964) rotate(-180)"/>
</clipPath>
</defs>
</svg>
